<?xml version="1.0" standalone="no"?>
<!DOCTYPE svg PUBLIC "-//W3C//DTD SVG 20010904//EN"
 "http://www.w3.org/TR/2001/REC-SVG-20010904/DTD/svg10.dtd">
<svg version="1.0" xmlns="http://www.w3.org/2000/svg"
 width="555.000000pt" height="450.000000pt" viewBox="0 0 555.000000 450.000000"
 preserveAspectRatio="xMidYMid meet">

<g transform="translate(0.000000,450.000000) scale(0.100000,-0.100000)"
fill="#000000" stroke="none">
<path d="M2677 4356 c-117 -49 -181 -127 -182 -220 0 -46 2 -51 28 -60 46 -17
63 1 81 86 15 65 99 126 190 135 91 9 177 -28 223 -96 45 -67 21 -191 -37
-191 -18 0 -21 -3 -11 -9 11 -7 8 -12 -11 -25 -39 -26 -86 -36 -163 -36 -84 0
-115 -16 -115 -61 l0 -29 -140 0 c-136 0 -142 1 -200 30 -32 16 -61 34 -64 39
-7 11 66 46 128 62 26 6 45 14 42 16 -7 8 -118 -27 -157 -49 -23 -13 -44 -36
-57 -64 -14 -28 -29 -45 -44 -48 -13 -2 -108 -9 -212 -15 -585 -35 -1227 -142
-1708 -285 -113 -33 -191 -65 -123 -51 199 43 743 113 1165 150 216 19 852 54
863 48 4 -2 7 -25 7 -51 0 -45 5 -54 88 -158 115 -145 174 -214 182 -214 4 0
10 22 14 49 4 27 12 66 20 87 l13 39 86 -133 c48 -73 87 -139 87 -147 0 -7
-33 -143 -74 -302 -41 -158 -111 -429 -155 -601 -45 -172 -81 -318 -81 -326 0
-12 336 -514 365 -544 10 -11 46 35 196 255 101 147 183 277 182 288 -1 18
-171 685 -274 1073 l-40 153 23 37 c12 20 53 84 90 141 76 117 74 117 99 -8
l12 -62 29 28 c17 15 80 90 141 167 106 132 111 140 108 181 -1 24 1 45 6 48
15 9 721 -31 953 -54 433 -42 670 -71 934 -115 82 -13 151 -22 153 -20 6 6
-159 55 -345 102 -454 116 -976 194 -1525 228 -116 8 -213 17 -214 22 -16 45
-54 91 -90 109 -23 11 -45 23 -47 26 -3 3 3 24 14 47 56 115 -10 256 -149 321
-46 21 -73 26 -151 29 -82 2 -103 -1 -153 -22z m482 -410 l44 -23 -65 -37
c-62 -34 -70 -36 -154 -35 -71 0 -84 2 -64 11 93 38 122 54 146 80 33 33 36
34 93 4z m-780 -95 c64 -32 161 -75 216 -97 55 -21 102 -39 104 -41 2 -1 -32
-41 -77 -87 -90 -94 -134 -170 -160 -277 l-17 -70 -32 33 c-17 18 -74 87 -127
153 l-96 119 0 71 c0 38 5 90 11 114 11 48 48 141 57 141 3 0 57 -26 121 -59z
m857 5 c27 -59 44 -143 44 -218 0 -45 -5 -53 -119 -197 -66 -82 -124 -152
-129 -155 -11 -7 -16 5 -27 64 -19 96 -97 224 -185 303 -27 25 -50 49 -50 54
0 4 55 29 123 56 67 26 163 70 212 97 50 27 94 49 98 49 4 1 19 -23 33 -53z"/>
<path d="M2565 4021 c-27 -3 49 -6 170 -6 121 0 195 3 165 7 -67 7 -266 7
-335 -1z"/>
<path d="M2473 4003 c9 -2 23 -2 30 0 6 3 -1 5 -18 5 -16 0 -22 -2 -12 -5z"/>
<path d="M1505 3260 c-3 -5 0 -12 7 -14 7 -3 37 -12 66 -21 73 -23 142 -73
166 -120 21 -39 21 -51 18 -510 -3 -468 9 -936 28 -1028 32 -159 174 -363 339
-487 75 -57 210 -129 289 -155 28 -9 52 -19 52 -22 0 -17 -847 25 -1245 62
-364 33 -980 116 -1052 142 -13 4 -15 3 -8 -5 28 -29 495 -149 810 -207 1189
-220 2636 -205 3820 41 179 37 600 152 591 161 -2 2 -57 -5 -122 -16 -388 -66
-890 -121 -1374 -151 -487 -30 -921 -40 -870 -18 14 5 71 33 128 60 222 109
385 319 459 593 l27 100 6 695 c3 492 8 702 17 720 29 65 73 109 140 142 l68
33 -120 6 c-192 10 -597 10 -591 0 3 -5 23 -12 43 -16 58 -11 139 -53 167 -86
54 -64 55 -74 58 -859 3 -810 5 -774 -69 -930 -47 -99 -166 -219 -269 -273
-201 -104 -481 -104 -694 0 -144 70 -269 226 -317 393 -17 61 -18 111 -15 795
3 584 7 736 17 762 19 46 94 123 154 158 28 17 51 35 51 40 0 6 -126 11 -353
12 -193 1 -366 5 -384 8 -17 3 -34 1 -38 -5z"/>
<path d="M4630 3084 c-213 -25 -370 -70 -466 -132 -161 -105 -305 -330 -355
-552 -26 -119 -26 -297 1 -410 69 -289 288 -501 609 -588 91 -25 109 -26 331
-26 185 0 270 5 400 22 94 13 170 28 178 35 7 8 24 47 38 88 29 82 45 251 26
263 -6 4 -26 -21 -48 -59 -115 -207 -239 -279 -479 -279 -132 1 -218 17 -325
61 -249 103 -418 288 -506 553 -26 78 -28 98 -28 240 -1 145 1 161 28 244 86
262 300 427 606 466 285 37 531 -63 633 -257 19 -38 38 -85 42 -106 4 -20 11
-39 15 -42 11 -7 46 232 52 360 l3 60 -210 27 c-197 26 -466 41 -545 32z"/>
<path d="M141 2953 c-30 -103 -41 -203 -23 -203 5 0 14 11 20 24 18 40 73 96
116 119 38 20 57 22 269 25 l227 3 0 -731 0 -732 -28 -28 c-16 -15 -49 -34
-73 -41 -24 -7 -47 -15 -51 -18 -4 -3 127 -6 291 -6 l297 0 -55 22 c-68 27
-135 94 -150 149 -7 26 -11 260 -11 712 l0 674 208 -4 c199 -3 209 -4 263 -29
60 -28 89 -61 109 -122 8 -25 16 -35 22 -29 13 13 27 128 28 221 l0 74 -57 -9
c-32 -5 -330 -9 -663 -9 l-605 0 -49 23 c-27 12 -50 22 -51 22 -1 0 -17 -48
-34 -107z"/>
<path d="M731 812 c-9 -17 -7 -18 24 -8 28 9 31 12 17 18 -26 10 -31 9 -41
-10z"/>
<path d="M818 803 c15 -5 16 9 -9 -114 -12 -57 -26 -107 -32 -111 -15 -9 -8
-14 33 -21 19 -3 29 -3 23 0 -17 6 -16 41 6 143 l17 85 34 -3 c19 -1 42 -10
52 -19 17 -15 18 -15 18 4 0 17 -8 21 -47 26 -27 3 -61 8 -78 10 -16 3 -24 2
-17 0z"/>
<path d="M4417 798 c-39 -8 -45 -12 -33 -22 21 -15 60 -204 46 -221 -15 -18
101 7 135 29 43 28 25 116 -24 116 -9 0 -11 6 -5 18 12 28 7 65 -12 79 -20 15
-39 15 -107 1z m83 -18 c26 -26 25 -55 -2 -74 -35 -25 -55 -20 -62 15 -12 62
-8 71 37 78 4 0 16 -8 27 -19z m38 -107 c11 -10 23 -28 27 -40 12 -44 -64 -85
-93 -50 -6 7 -14 31 -18 54 -5 35 -3 42 12 46 36 9 52 7 72 -10z"/>
<path d="M4287 773 c-25 -4 -27 -6 -12 -17 20 -15 48 -140 40 -178 -13 -56
-95 -79 -134 -37 -21 22 -46 143 -39 183 4 19 1 21 -29 18 -28 -4 -31 -6 -19
-16 9 -6 20 -42 27 -86 6 -41 18 -87 25 -102 37 -72 184 -31 184 51 0 17 -5
62 -12 101 -11 61 -10 73 2 80 8 6 11 9 5 8 -5 0 -23 -3 -38 -5z"/>
<path d="M1009 761 c13 -8 12 -23 -3 -108 -10 -60 -23 -103 -33 -110 -13 -10
-12 -13 13 -18 16 -4 36 -9 44 -11 13 -4 12 -2 -1 11 -13 13 -14 25 -6 66 5
27 12 49 16 48 3 0 35 -6 71 -13 63 -12 65 -13 68 -44 2 -18 -3 -45 -11 -61
-14 -29 -14 -29 19 -33 25 -3 31 -1 23 9 -7 8 -6 43 5 111 9 55 16 102 16 106
0 3 8 6 18 7 14 0 14 2 -3 9 -28 12 -75 13 -56 1 10 -6 12 -21 8 -51 -3 -23
-8 -44 -11 -47 -7 -7 -119 7 -135 17 -21 12 -5 100 17 101 26 1 -17 17 -48 18
-19 1 -21 -2 -11 -8z"/>
<path d="M1318 714 c15 -7 15 -36 0 -142 -9 -67 -15 -85 -31 -91 -12 -5 14
-12 74 -20 86 -11 95 -11 106 5 20 27 16 39 -6 20 -14 -12 -32 -16 -67 -14
-48 3 -49 4 -52 37 -5 47 5 79 26 84 15 4 15 5 -2 6 -15 1 -17 6 -12 32 3 17
6 40 6 50 0 27 59 25 95 -3 25 -19 27 -19 24 -3 -2 10 -15 22 -29 25 -34 9
-149 21 -132 14z"/>
<path d="M3906 713 c-32 -4 -36 -6 -22 -16 23 -17 52 -203 35 -223 -14 -17
-12 -17 86 -3 41 6 75 15 75 19 0 5 3 17 6 27 4 14 1 13 -13 -5 -12 -15 -34
-25 -60 -29 -51 -7 -55 1 -73 120 -9 69 -10 90 0 102 7 8 11 14 9 13 -2 -1
-21 -3 -43 -5z"/>
<path d="M3764 690 c15 -5 37 -17 47 -26 18 -16 19 -16 19 0 0 18 -38 37 -73
35 -18 -1 -17 -2 7 -9z"/>
<path d="M3674 671 c-47 -28 -64 -59 -64 -112 0 -36 6 -55 26 -78 24 -29 78
-52 119 -50 12 0 5 5 -15 11 -44 12 -69 34 -86 75 -28 66 -7 134 49 158 18 8
25 14 17 15 -8 0 -29 -9 -46 -19z"/>
<path d="M1646 670 c8 -8 10 -45 6 -115 -5 -103 -5 -103 22 -120 14 -10 46
-20 69 -22 35 -4 48 -1 71 18 22 20 29 37 36 94 5 39 12 85 15 103 5 29 4 32
-20 32 -24 0 -25 -2 -11 -15 12 -12 14 -30 9 -83 -7 -84 -16 -107 -47 -127
-31 -20 -76 -13 -102 16 -30 34 -19 209 13 209 26 0 11 7 -32 14 -30 6 -37 5
-29 -4z"/>
<path d="M3413 650 c-13 -5 -23 -14 -23 -19 0 -16 -72 -181 -79 -181 -3 0 -30
43 -60 95 -47 83 -57 95 -80 95 -22 -1 -24 -2 -8 -11 14 -8 17 -25 17 -112 0
-67 -4 -107 -12 -115 -9 -9 -4 -12 22 -12 30 0 32 2 16 13 -14 10 -16 26 -14
97 l3 85 54 -95 c29 -52 54 -96 55 -97 2 -2 13 23 26 55 13 31 33 77 44 102
19 43 20 44 27 20 12 -44 10 -158 -3 -164 -7 -4 -2 -4 12 -1 14 2 34 5 44 5
18 0 18 1 4 13 -11 8 -19 42 -26 112 -9 88 -9 101 6 113 18 14 7 15 -25 2z"/>
<path d="M1939 641 c22 -14 9 -210 -15 -228 -16 -12 -13 -13 20 -13 33 0 36 2
23 15 -11 11 -14 30 -10 77 9 121 5 121 94 6 45 -57 84 -104 88 -106 5 -1 11
48 14 110 3 65 10 114 16 116 22 7 -1 22 -32 21 -18 -1 -25 -3 -16 -6 10 -2
19 -12 21 -21 6 -31 -4 -163 -12 -160 -11 4 -150 180 -150 190 0 5 -12 8 -27
8 -20 0 -24 -3 -14 -9z"/>
<path d="M2248 623 c18 -7 16 -180 -2 -215 l-15 -28 42 0 c34 1 39 3 24 11
-17 10 -18 20 -12 112 5 75 11 105 23 115 13 10 9 12 -29 11 -24 0 -38 -3 -31
-6z"/>
<path d="M2383 616 c11 -11 13 -37 9 -118 -3 -59 -9 -106 -16 -110 -6 -4 3 -8
19 -8 30 0 30 0 30 57 0 58 0 58 32 61 23 2 35 -3 47 -20 16 -22 16 -22 16 17
0 30 -3 36 -12 27 -7 -7 -29 -12 -51 -12 l-38 0 3 53 3 52 40 -3 c22 -2 46
-10 53 -19 11 -15 12 -15 12 4 0 17 -8 21 -46 27 -26 3 -62 6 -81 6 -30 0 -33
-2 -20 -14z"/>
<path d="M2653 616 c-62 -28 -93 -124 -59 -184 52 -95 209 -78 246 26 28 82
-23 160 -111 168 -26 3 -57 -2 -76 -10z m105 -12 c49 -34 68 -125 37 -183 -16
-33 -33 -41 -79 -41 -97 0 -141 150 -64 215 34 29 73 32 106 9z"/>
<path d="M2905 620 c-3 -5 -2 -10 3 -10 13 0 23 -202 10 -217 -8 -10 -2 -13
26 -13 34 0 36 1 22 16 -9 9 -16 32 -16 55 0 34 3 39 23 39 17 0 34 -14 56
-46 30 -42 64 -64 94 -64 7 0 0 9 -14 20 -14 11 -39 38 -54 60 l-28 41 21 15
c30 21 30 77 0 98 -25 18 -133 22 -143 6z m113 -16 c15 -10 22 -25 22 -49 0
-38 -20 -55 -64 -55 -25 0 -26 2 -26 60 0 56 2 60 23 60 12 0 33 -7 45 -16z"/>
<path d="M1431 603 c-1 -7 -11 -13 -23 -14 -22 0 -22 -1 -3 -9 23 -9 40 2 32
22 -4 9 -6 10 -6 1z"/>
<path d="M3837 484 c-11 -14 -29 -29 -40 -34 l-22 -9 23 0 c25 -1 62 31 62 54
0 20 -2 19 -23 -11z"/>
</g>
</svg>
